<svg width="79" height="17" viewBox="0 0 79 17" fill="none" xmlns="http://www.w3.org/2000/svg">
<path d="M0.273438 4.03601H2.46944V5.35001L3.78344 4.03601H7.27544L9.12944 5.90801V11.128L7.27544 13H3.80144L2.64944 12.046V16.816H0.273438V4.03601ZM6.12344 10.984L6.75344 10.354V6.68201L6.12344 6.05201H4.08944L2.64944 7.51001V9.70601L4.07144 10.984H6.12344Z" fill="#0926BB"/>
<path d="M11.1016 4.03601H13.2976V5.53001L14.7376 4.03601H17.2936V6.05201H15.2236L13.4776 7.85201V13H11.1016V4.03601Z" fill="#0926BB"/>
<path d="M18.3768 2.16401V1.01201L19.2048 0.184011H20.4648L21.2928 1.01201V2.16401L20.4648 2.99201H19.2048L18.3768 2.16401ZM18.6468 4.03601H21.0228V13H18.6468V4.03601Z" fill="#0926BB"/>
<path d="M23.1911 11.128V5.90801L25.0451 4.03601H30.1931L32.0471 5.90801V11.128L30.1931 13H25.0451L23.1911 11.128ZM29.0411 11.02L29.6711 10.39V6.64601L29.0411 6.01601H26.1971L25.5671 6.64601V10.39L26.1971 11.02H29.0411Z" fill="#0926BB"/>
<path d="M33.8434 11.164V5.87201L35.6614 4.03601H40.5934L42.4474 5.90801V7.56401H40.0714V6.68201L39.4414 6.05201H36.8494L36.2194 6.68201V10.354L36.8494 10.984H39.4414L40.0714 10.354V9.47201H42.4474V11.128L40.5934 13H35.6614L33.8434 11.164Z" fill="#0926BB"/>
<path d="M44.1505 0.14801H46.5265V13H44.1505V0.14801Z" fill="#0926BB"/>
<path d="M48.5915 11.128V5.90801L50.4455 4.03601H55.5935L57.4475 5.90801V11.128L55.5935 13H50.4455L48.5915 11.128ZM54.4415 11.02L55.0715 10.39V6.64601L54.4415 6.01601H51.5975L50.9675 6.64601V10.39L51.5975 11.02H54.4415Z" fill="#0926BB"/>
<path d="M59.3338 11.11V4.03601H61.7098V10.372L62.3218 10.984H63.7618L65.5258 9.22001V4.03601H67.9018V13H65.7058V11.47L64.1578 13H61.2238L59.3338 11.11Z" fill="#0926BB"/>
<path d="M69.8786 11.128V5.90801L71.7326 4.03601H75.2966L76.3586 4.95401V0.14801H78.7346V13H76.5026V11.614L75.1166 13H71.7326L69.8786 11.128ZM74.9006 10.984L76.3586 9.49001V7.15001L75.1346 6.05201H72.9386L72.2546 6.75401V10.282L72.9386 10.984H74.9006Z" fill="#0926BB"/>
</svg>
